<svg xmlns="http://www.w3.org/2000/svg" xmlns:xlink="http://www.w3.org/1999/xlink" width="442" zoomAndPan="magnify" viewBox="0 0 331.5 79.499998" height="106" preserveAspectRatio="xMidYMid meet" version="1.0"><defs><g/><clipPath id="63c1a238d0"><path d="M 0.789062 0 L 330.214844 0 L 330.214844 79.003906 L 0.789062 79.003906 Z M 0.789062 0 " clip-rule="nonzero"/></clipPath><clipPath id="a349c448d0"><path d="M 8 25 L 72 25 L 72 54 L 8 54 Z M 8 25 " clip-rule="nonzero"/></clipPath><clipPath id="0be4d19536"><path d="M 40.226562 0.0625 L 79.75 39.585938 L 40.226562 79.113281 L 0.699219 39.585938 Z M 40.226562 0.0625 " clip-rule="nonzero"/></clipPath><clipPath id="9d7389a380"><path d="M 40.226562 0.0625 L 79.75 39.585938 L 40.226562 79.113281 L 0.699219 39.585938 Z M 40.226562 0.0625 " clip-rule="nonzero"/></clipPath></defs><g clip-path="url(#63c1a238d0)"><path fill="#ffffff" d="M 0.789062 0 L 330.214844 0 L 330.214844 79.003906 L 0.789062 79.003906 Z M 0.789062 0 " fill-opacity="1" fill-rule="nonzero"/></g><g clip-path="url(#a349c448d0)"><g clip-path="url(#0be4d19536)"><g clip-path="url(#9d7389a380)"><path fill="#000000" d="M 57.820312 53.566406 L 43.746094 53.5625 C 35.976562 53.566406 29.675781 47.261719 29.675781 39.492188 C 29.675781 38.269531 29.882812 37.105469 30.171875 35.972656 L 36.710938 35.972656 C 37.023438 35.972656 37.304688 36.074219 37.59375 36.152344 C 37.046875 37.152344 36.710938 38.277344 36.710938 39.492188 C 36.710938 43.371094 39.871094 46.527344 43.746094 46.527344 L 57.816406 46.527344 C 61.699219 46.527344 64.855469 43.371094 64.851562 39.492188 C 64.855469 35.613281 61.699219 32.457031 57.816406 32.457031 L 52.8125 32.457031 C 51.574219 29.636719 49.597656 27.238281 47.15625 25.421875 L 57.816406 25.421875 C 65.589844 25.421875 71.890625 31.722656 71.890625 39.492188 C 71.890625 47.261719 65.589844 53.5625 57.820312 53.566406 Z M 27.648438 46.527344 L 22.640625 46.53125 C 18.761719 46.527344 15.605469 43.371094 15.601562 39.492188 C 15.605469 35.613281 18.757812 32.457031 22.640625 32.457031 L 36.710938 32.457031 C 40.59375 32.457031 43.746094 35.613281 43.746094 39.492188 C 43.746094 40.703125 43.410156 41.832031 42.867188 42.828125 C 43.160156 42.90625 43.4375 43.011719 43.746094 43.011719 L 50.285156 43.011719 C 50.578125 41.882812 50.78125 40.714844 50.78125 39.492188 C 50.78125 31.722656 44.480469 25.421875 36.710938 25.421875 L 22.640625 25.421875 C 14.867188 25.421875 8.570312 31.722656 8.566406 39.492188 C 8.570312 47.261719 14.867188 53.5625 22.640625 53.566406 L 33.304688 53.566406 C 30.859375 51.746094 28.886719 49.347656 27.648438 46.527344 Z M 27.648438 46.527344 " fill-opacity="1" fill-rule="nonzero"/></g></g></g><g fill="#000000" fill-opacity="1"><g transform="translate(79.673397, 51.394555)"><g><path d="M 2.945312 0 L 16.746094 0 C 26.445312 0 30.972656 -5.070312 30.972656 -12.933594 C 30.972656 -20.777344 26.445312 -25.847656 16.746094 -25.847656 L 2.945312 -25.847656 Z M 10.328125 -5.871094 L 10.328125 -20.011719 L 16.351562 -20.011719 C 21.21875 -20.011719 23.195312 -17.648438 23.195312 -12.933594 C 23.195312 -8.203125 21.21875 -5.871094 16.351562 -5.871094 Z M 10.328125 -5.871094 "/></g></g></g><g fill="#000000" fill-opacity="1"><g transform="translate(111.896697, 51.394555)"><g><path d="M 2.945312 0 L 10.328125 0 L 10.328125 -10.347656 L 15.691406 -10.347656 C 21.527344 -10.347656 19.707031 -3.488281 21.714844 0 L 29.371094 0 C 26.972656 -3.878906 28.757812 -10.039062 23.976562 -11.878906 C 26.921875 -12.046875 30.496094 -13.628906 30.496094 -18.734375 C 30.496094 -22.53125 27.804688 -25.847656 21 -25.847656 L 2.945312 -25.847656 Z M 10.328125 -15.519531 L 10.328125 -20.371094 L 19.757812 -20.371094 C 22.496094 -20.371094 23.484375 -19.757812 23.484375 -18.003906 C 23.484375 -16.25 22.496094 -15.519531 19.757812 -15.519531 Z M 10.328125 -15.519531 "/></g></g></g><g fill="#000000" fill-opacity="1"><g transform="translate(143.422449, 51.394555)"><g><path d="M 10.328125 -5.871094 L 10.328125 -10.722656 L 19.160156 -10.722656 L 19.160156 -15.824219 L 10.328125 -15.824219 L 10.328125 -20.011719 L 25.167969 -20.011719 L 25.167969 -25.847656 L 2.945312 -25.847656 L 2.945312 0 L 26.019531 0 L 26.019531 -5.871094 Z M 10.328125 -5.871094 "/></g></g></g><g fill="#000000" fill-opacity="1"><g transform="translate(170.745901, 51.394555)"><g><path d="M 5.546875 0 L 16.4375 0 L 19.65625 -19.757812 L 19.925781 -19.757812 L 23.074219 0 L 34 0 L 38.695312 -25.847656 L 30.917969 -25.847656 L 28.28125 -5.855469 L 28.09375 -5.855469 L 25.339844 -25.847656 L 14.242188 -25.847656 L 11.453125 -5.855469 L 11.25 -5.855469 L 8.59375 -25.847656 L 0.832031 -25.847656 Z M 5.546875 0 "/></g></g></g><g fill="#000000" fill-opacity="1"><g transform="translate(210.267931, 51.394555)"><g><path d="M 1.597656 0 L 27.277344 0 L 27.277344 -5.871094 L 11.195312 -5.871094 L 11.195312 -6.175781 L 26.496094 -20.011719 L 26.496094 -25.847656 L 1.53125 -25.847656 L 1.53125 -20.011719 L 17.699219 -20.011719 L 17.699219 -19.707031 L 1.597656 -5.460938 Z M 1.597656 0 "/></g></g></g><g fill="#000000" fill-opacity="1"><g transform="translate(238.884399, 51.394555)"><g><path d="M 2.945312 0 L 10.328125 0 L 10.328125 -25.847656 L 2.945312 -25.847656 Z M 2.945312 0 "/></g></g></g><g fill="#000000" fill-opacity="1"><g transform="translate(252.154819, 51.394555)"><g><path d="M 22.511719 -25.847656 L 22.511719 -8.816406 L 12.8125 -25.847656 L 2.945312 -25.847656 L 2.945312 0 L 10.246094 0 L 10.246094 -17.171875 L 19.996094 0 L 29.8125 0 L 29.8125 -25.847656 Z M 22.511719 -25.847656 "/></g></g></g></svg>